<svg xmlns="http://www.w3.org/2000/svg" width="193.17" height="44.03" viewBox="0 0 193.17 44.03"><path d="M2.74 36.68C.8 36.68 0 36 0 34.6a7.51 7.51 0 0 1 .17-1.35l2.25-10.66c.49-2.35 1.52-3.43 4-3.43H18.8l-.9 4.26H8c-.76 0-1 .17-1.14.93l-1.49 7a2 2 0 0 0-.07.45c0 .38.21.52.8.52H16l-.9 4.36H2.74zM37.06 19.16H22.72l-.8 3.84H33.8c.62 0 .83.21.83.59a1.8 1.8 0 0 1 0 .38l-.41 1.94H23.56c-2.22 0-3 .73-3.6 3.36l-.87 4.15a7 7 0 0 0-.17 1.28c0 1.35.73 2 2.49 2h15.27l3-14.09a6.8 6.8 0 0 0 .18-1.35c0-1.42-.77-2.08-2.78-2.08M24.66 32.52c-.48 0-.66-.1-.66-.45a2.52 2.52 0 0 1 .07-.48l.38-1.83c.14-.73.35-.9 1-.9h8.09l-.78 3.67h-8.1zM40 36.68l3.71-17.52h4.71L48 21.07a3.74 3.74 0 0 1 3.43-1.9h5.09l-.9 4.19h-7c-.69 0-1 .21-1.18 1l-2.6 12.36H40zM55.61 36.68l3.7-17.52H64l-.41 1.91a3.75 3.75 0 0 1 3.41-1.9h5.09l-.9 4.19h-7c-.69 0-1 .21-1.18 1l-2.54 12.33h-4.86zM74.52 36.68c-1.94 0-2.74-.66-2.74-2.08a7.51 7.51 0 0 1 .17-1.35l2.25-10.66c.49-2.35 1.53-3.43 4-3.43h11.93c2 0 2.77.66 2.77 2.08a7.51 7.51 0 0 1-.17 1.35l-2.25 10.66C90 35.6 89 36.68 86.43 36.68zm13-12.36a3 3 0 0 0 .07-.42c0-.41-.28-.55-.93-.55h-6.87c-.73 0-1 .21-1.11 1l-1.49 7.13a2 2 0 0 0-.07.45c0 .35.21.49.76.49h6.86c.83 0 1.14-.24 1.28-.93z" fill="#e1061b"/><path d="M92.13 44l.9-4.19h11.64c.8 0 1-.24 1.18-1l.49-2.15h-10c-1.94 0-2.73-.66-2.73-2.08a7.51 7.51 0 0 1 .17-1.35l3-14.09h4.85l-2.68 12.59a2.76 2.76 0 0 0-.07.45c0 .38.24.56.83.56h7.44L110 19.17h4.88l-4.55 21.43c-.52 2.4-1.56 3.4-4.08 3.4H92.13zM133.16 19.16h-14.33L118 23h11.88c.62 0 .83.21.83.59a1.36 1.36 0 0 1 0 .38l-.41 1.94h-10.64c-2.21 0-3.05.73-3.6 3.36l-.87 4.15a7 7 0 0 0-.17 1.28c0 1.35.73 2 2.49 2h15.27l3-14.09a7.51 7.51 0 0 0 .17-1.35c0-1.42-.76-2.08-2.77-2.08m-12.4 13.36c-.48 0-.66-.1-.66-.45a2.52 2.52 0 0 1 .07-.48l.38-1.83c.14-.73.35-.9 1-.9h8.09l-.78 3.67h-8.1z" fill="#fff"/><path fill="#e1061b" d="M136.08 36.68l.78-3.66h3.1l-.77 3.66h-3.11M144.77 36.68c-1.36 0-1.91-.46-1.91-1.45a5.14 5.14 0 0 1 .12-.94l1.58-7.46c.34-1.65 1.07-2.4 2.81-2.4H156l-.63 3h-6.91c-.53 0-.68.12-.8.66l-1 4.89a2.09 2.09 0 0 0-.05.32c0 .27.14.36.56.36h6.91l-.63 3h-8.66zM157.91 36.68c-1.36 0-1.91-.46-1.91-1.45a5.14 5.14 0 0 1 .12-.94l1.58-7.46c.34-1.65 1.07-2.4 2.81-2.4h8.34c1.4 0 1.94.46 1.94 1.46a5.34 5.34 0 0 1-.12 1l-1.57 7.41c-.36 1.65-1.07 2.4-2.84 2.4h-8.35zM167 28a2.53 2.53 0 0 0 .05-.29c0-.29-.19-.39-.65-.39h-4.8c-.51 0-.68.15-.77.68l-1 5a2.09 2.09 0 0 0-.05.32c0 .24.14.34.53.34h4.8c.58 0 .8-.17.9-.65zM187.58 36.7l1.82-8.65a1.32 1.32 0 0 0 .05-.32c0-.27-.17-.36-.61-.36h-3.64c-.51 0-.7.15-.8.61l-1.84 8.72h-3.39l1.83-8.65a2.09 2.09 0 0 0 .05-.32c0-.27-.17-.36-.58-.36h-3.67c-.48 0-.68.15-.8.68l-1.82 8.65h-3.39l2.59-12.26h3.27l-.29 1.33a2.67 2.67 0 0 1 2.4-1.33h4.1c1.24 0 1.84.39 1.87 1.33a2.84 2.84 0 0 1 2.45-1.33h4.1c1.29 0 1.89.44 1.89 1.5a3.81 3.81 0 0 1-.1.9L191 36.7zM108.07 22.65a12.14 12.14 0 0 1-1.22-5.65 12.5 12.5 0 0 1 22.87-6.69l4.55-1.78A16.05 16.05 0 0 0 104.06 16a15.85 15.85 0 0 0 1.42 6.68z"/><path d="M135.8 12.74l-.34-1.32-13.82 2.95a2.28 2.28 0 1 0 .61 2.31z" fill="#e1061b"/></svg>